<?xml version="1.0" encoding="UTF-8"?>
<svg id="Layer_2" data-name="Layer 2" xmlns="http://www.w3.org/2000/svg" viewBox="0 0 924.35 387.23">
  <defs>
    <style>
      .cls-1 {
        fill: #fff;
      }
    </style>
  </defs>
  <g id="Layer_1-2" data-name="Layer 1">
    <g>
      <g>
        <path class="cls-1" d="M214.42,5.12c-6.82,1.4-12.74,11.59-10.92,21.12,0,0,1.45-12.45,13.55-12.07,12.11.37,23.92,8.99,22.96,22.19-.97,13.2-29.38,31.48-29.38,31.48,0,0-3.46-12.91-13.97-22.08-7.99-6.97-22.14-18.85-20.07-29.34,2.08-10.5,20.92-8.52,26.9,9.84,0,0-.3-13.03-7.79-22.16-7.5-9.12-20.1-1.49-21.03,8.67-.96,10.51-.79,23.66,13.76,36.86,14.55,13.21,19.07,17.94,20.3,29.16,0,0,17.81-12.87,25.7-23.08,7.89-10.21,12.37-29.86-.39-42.92-6.03-6.16-13.54-8.9-19.63-7.65"/>
        <path class="cls-1" d="M134.81,130.5s-18.44,12.05-42.96-4.06c0,0,3.05,13.96,17.42,22.11,0,0,4.23.9,4.79-2.42,0,0-9.96-5.37-12.33-11.51,0,0,19.19,8.23,33.08-4.13"/>
        <path class="cls-1" d="M229.58,141.71c5.02-13.33,2.81-28.46-3.44-41.03-2.52-5.06-5.92-9.91-10.41-13.52-1.11-.9-2.21-1.56-3.32-2.05,0,0,.02-.02.01-.02-.03-.01-.22-.1-.54-.22-.14-.05-.27-.1-.41-.15-.27-.1-.61-.2-.99-.31-.05-.01-.09-.03-.14-.04-1.45-.41-3.59-.84-6.16-.85-.68-.09-1.92.02-3.27.22-.14.02-.28.05-.41.07-.27.04-.54.09-.81.14-.07.01-.14.02-.22.04-.03,0-.05.01-.08.02-1.38.27-2.69.61-3.46.93-4.58,1.53-6.37,3.47-6.37,3.47l-.02.03c-.65.58-1.26,1.24-1.82,2.04-4.13,5.99-4.46,14-5.16,20.91-1.23,12.17-2.6,24.89-7.82,36.17-4.36,9.47-12.11,16.39-21.05,21.82-6.56,3.99-13.54,7.36-20.68,10.45-4.12-2.85-8.26-5.67-12.41-8.46-4.29-2.89-8.73-5.56-13.17-8.21,4.58-1.23,8.65-2.33,11.19-3.01.6-.16,1.21-.32,1.81-.49.56-.15.9-.24.9-.24h-.02c11.54-3.25,22.56-7.95,31.51-16.05,14.5-13.13,18.01-36.02,4.25-50.95-9.88-10.72-26.08-17.38-40.82-15.96-1.59.15-3.19.35-4.79.56-.13-.11-2.03.21-3.68.56-16.12,2.73-31.71,9.17-40.43,23.35-9.64,15.69-7.2,37.37,6.62,50,6.02,5.5,13.43,9.59,20.57,13.73-3.04.75-6.18,1.53-9.31,2.32-1.94.41-3.87.84-5.79,1.31-5.51,1.35-10.97,2.89-16.38,4.58-1.67.49-3.06.93-4.05,1.29-.05.02-.09.04-.15.05-2.47.83-4.93,1.69-7.37,2.6-13.18,4.94-26.16,11.4-36.65,20.69C6.96,204.51.34,213.95,0,224.62c-.08,5.51.3,11.74,4.03,16.21,3.26,3.91,8.33,3.63,12.95,2.89,8.4-1.36,15.57-2.75,22.95-7.01,7.77-4.48,14.62-10.36,21.28-16.24,7.89-6.96,15.81-13.23,25.24-18.18,12.67-6.65,26.15-11.73,39.53-16.93.62.44,1.25.88,1.87,1.32,6.77,4.79,13.46,9.71,20,14.82,0,0,0,0,0,0-10.6,5.65-21.28,11.18-31.86,16.87-7.81,4.19-15.49,8.39-22.51,13.76-23.25,17.78-38.66,44.18-47.61,71.14-4.09,12.33-6.81,25.15-7.75,38.07-.73,10.04-.41,20.51,2.74,30.18,2.09,6.4,6.06,13.01,13.07,15.1,4.96,1.49,10.57-.1,15.47-.95,5.48-.95,10.32-2,14.89-5.23,9.35-6.61,14.47-18.12,18.58-28.21,5.32-13.09,9.16-26.7,13.63-40.07,4.15-12.43,8.67-25.14,16.17-36.1,2.73-4.01,6.04-7.66,9.98-10.59,3.55,2.95,4.3,9.72,4.8,13.48,1.29,9.72,1,19.65.81,29.42-.22,11.1-.64,22.21-.46,33.32.14,8.74.36,17.99,3.2,26.37,2.64,7.8,8.13,10.02,16.41,8.69,2.1-.34,4.17-.65,6.2-1,3.69-.54,4.8-.77,3.33-.68,3.81-.88,7.45-2.16,10.82-4.58,5.94-4.26,10.31-10.47,13.93-16.6,9.54-16.17,14.36-35.15,16.39-53.54,1.88-17.13-.32-32.86-8.68-48.18-8.73-16.02-22.08-29.44-35.87-41.45-4.42-3.85-8.97-7.57-13.59-11.2,12.7-6.72,25.26-13.68,37.11-21.71,13.58-9.2,26.76-20.61,32.58-36.05ZM92.6,153.96c-7.75-5.21-13.27-11.43-16.59-20.05-6.66-17.27.21-37.29,15.45-47.97,4.34-3.04,9.35-5.34,14.36-7.13.56-.2,1.12-.38,1.69-.55,2.11-.08,4.23.04,6.33.27,8.22.88,15.85,4.52,22.57,9,8.2,5.46,13.97,12.04,16.39,21.53,2.42,9.46.51,19.43-4.67,27.71-7.06,11.27-19.51,18.19-32.03,22.65-.23.05-4.49,1.06-10.64,2.55-4.34-2.59-8.68-5.2-12.87-8.02ZM108.4,189.66c-15.3,5.95-31.18,11.88-44.77,21.1-10.31,7-18.78,16.24-28.87,23.54-4.11,2.98-8.51,5.66-13.21,7.67-.79-.17-1.56-.42-2.3-.74-6.85-2.97-7.35-12.52-7.26-18.66.59-19.73,20.58-33.38,36.87-41.5,2.27-1.13,4.57-2.18,6.89-3.19,1.98-.61,22.1-6.78,25.33-7.76-2.01.62,6.23-1.57,15.76-4.12.61.37,1.23.73,1.84,1.09,8.55,5.18,16.8,10.87,24.96,16.62-5.09,2.03-10.21,3.98-15.26,5.95ZM70.97,385.15c-.24.01-.48,0-.72,0,5.99-1.12,3.69-.16.72,0ZM176.12,226.46c11.99,12.26,22.53,26.4,27.72,42.69,5.43,17.07,2.82,35.96-1.22,53.04-3.84,16.26-10.25,33.66-22.14,46.12-2.13,2.23-4.55,4.19-7.21,5.81-.48.29-.98.55-1.48.79-2.38-.43-4.44-1.5-6.04-3.48-4.61-5.71-5.05-14.64-5.57-21.53-1.6-21.35.86-42.77-.05-64.14-.29-6.69-.39-15.09-4.34-20.91-1.25-1.83-3.13-2.96-5.41-2.92-.58.01-1.17.08-1.75.14,1.25-.96-12.89,1.67-10.56,1.89-1.24.26-2.45.57-3.63,1.12-9.59,4.42-15.67,15-20.04,23.84-6.18,12.54-10.21,26.01-14.46,39.23-4.11,12.81-8.14,25.83-14.47,37.81-3.97,7.52-9.52,15.3-17.53,19.01-.18-.03-.37-.05-.55-.07-1.62-.26-3.16-.86-4.59-1.63-2.96-1.6-5.19-4.22-6.9-7-4.72-7.7-5.79-17.37-6.06-26.13-.79-26,7.26-52.66,19.35-75.67,6.75-12.85,15.32-24.85,25.73-35.19,12.86-12.77,28.8-20.78,44.81-29.24,3.79-2,7.59-3.98,11.39-5.97,8.76,7.01,17.19,14.39,25,22.38ZM156.51,196.86c-6.86-5.27-13.88-10.33-20.98-15.29,1.55-.63,3.1-1.25,4.64-1.89,12.32-5.13,25.18-10.64,35.3-19.35,7.89-6.78,12.43-15.74,15.02-25.51,1.65-6.25,2.56-12.67,3.34-19.07.94-7.74,1.05-15.73,3.77-23.14.31-.83.48-1.46,1.1-2.43,1.98-2.78,4.54-1.24,5.4-.68,1.48,1.19,2.51,2.27,3.67,3.57,8.8,9.9,12.93,24.1,12.52,36.98-.51,15.71-9.87,28.85-21.46,39.13-12.52,11.12-27.44,19.65-42.33,27.66Z"/>
      </g>
      <g>
        <g>
          <path class="cls-1" d="M287.57,170.34v-.18c0-17.62,13.28-32.05,32.32-32.05,11.69,0,18.68,3.9,24.44,9.56l-8.68,10.01c-4.78-4.34-9.65-7-15.85-7-10.45,0-17.97,8.68-17.97,19.3v.18c0,10.63,7.35,19.48,17.97,19.48,7.08,0,11.42-2.83,16.29-7.26l8.68,8.77c-6.38,6.82-13.46,11.07-25.41,11.07-18.24,0-31.79-14.08-31.79-31.88Z"/>
          <path class="cls-1" d="M349.47,136.51h13.46v23.91c3.1-3.98,7.08-7.62,13.9-7.62,10.18,0,16.12,6.73,16.12,17.62v30.73h-13.46v-26.48c0-6.38-3.01-9.65-8.15-9.65s-8.41,3.28-8.41,9.65v26.48h-13.46v-64.64Z"/>
          <path class="cls-1" d="M400.12,136.51h14.17v11.95h-14.17v-11.95ZM400.47,153.69h13.46v47.46h-13.46v-47.46Z"/>
          <path class="cls-1" d="M422.44,136.51h13.46v64.64h-13.46v-64.64Z"/>
          <path class="cls-1" d="M441.65,177.51v-.18c0-15.85,10.36-24.53,21.61-24.53,7.17,0,11.6,3.28,14.79,7.08v-23.38h13.46v64.64h-13.46v-6.82c-3.28,4.43-7.79,7.7-14.79,7.7-11.07,0-21.61-8.68-21.61-24.53ZM478.22,177.51v-.18c0-7.88-5.22-13.1-11.51-13.1s-11.6,5.14-11.6,13.1v.18c0,7.88,5.31,13.1,11.6,13.1s11.51-5.22,11.51-13.1Z"/>
          <path class="cls-1" d="M519.23,170.34v-.18c0-17.62,13.72-32.05,32.5-32.05,11.16,0,17.89,3.01,24.35,8.5l-8.59,10.36c-4.78-3.98-9.03-6.29-16.2-6.29-9.92,0-17.8,8.77-17.8,19.3v.18c0,11.33,7.79,19.66,18.77,19.66,4.96,0,9.39-1.24,12.84-3.72v-8.85h-13.72v-11.78h26.92v26.92c-6.38,5.4-15.14,9.83-26.48,9.83-19.3,0-32.58-13.55-32.58-31.88Z"/>
          <path class="cls-1" d="M584.84,184.42v-30.73h13.46v26.48c0,6.38,3.01,9.65,8.15,9.65s8.41-3.28,8.41-9.65v-26.48h13.46v47.46h-13.46v-6.73c-3.1,3.98-7.08,7.62-13.9,7.62-10.18,0-16.12-6.73-16.12-17.62Z"/>
          <path class="cls-1" d="M632.75,187.52v-.18c0-10.36,7.88-15.14,19.13-15.14,4.78,0,8.24.8,11.6,1.95v-.8c0-5.58-3.45-8.68-10.18-8.68-5.14,0-8.77.97-13.1,2.57l-3.37-10.27c5.22-2.3,10.36-3.81,18.42-3.81,7.35,0,12.66,1.95,16.03,5.31,3.54,3.54,5.14,8.77,5.14,15.14v27.54h-13.02v-5.14c-3.28,3.63-7.79,6.02-14.34,6.02-8.94,0-16.29-5.14-16.29-14.52ZM663.65,184.42v-2.39c-2.3-1.06-5.31-1.77-8.59-1.77-5.76,0-9.3,2.3-9.3,6.55v.18c0,3.63,3.01,5.76,7.35,5.76,6.29,0,10.54-3.45,10.54-8.32Z"/>
          <path class="cls-1" d="M683.23,153.69h13.46v9.56c2.75-6.55,7.17-10.8,15.14-10.45v14.08h-.71c-8.94,0-14.43,5.4-14.43,16.74v17.53h-13.46v-47.46Z"/>
          <path class="cls-1" d="M712.45,177.51v-.18c0-15.85,10.36-24.53,21.6-24.53,7.17,0,11.6,3.28,14.79,7.08v-23.38h13.46v64.64h-13.46v-6.82c-3.28,4.43-7.79,7.7-14.79,7.7-11.07,0-21.6-8.68-21.6-24.53ZM749.02,177.51v-.18c0-7.88-5.22-13.1-11.51-13.1s-11.6,5.14-11.6,13.1v.18c0,7.88,5.31,13.1,11.6,13.1s11.51-5.22,11.51-13.1Z"/>
          <path class="cls-1" d="M769.83,136.51h14.17v11.95h-14.17v-11.95ZM770.19,153.69h13.46v47.46h-13.46v-47.46Z"/>
          <path class="cls-1" d="M788.69,187.52v-.18c0-10.36,7.88-15.14,19.13-15.14,4.78,0,8.24.8,11.6,1.95v-.8c0-5.58-3.45-8.68-10.18-8.68-5.14,0-8.77.97-13.1,2.57l-3.37-10.27c5.22-2.3,10.36-3.81,18.42-3.81,7.35,0,12.66,1.95,16.03,5.31,3.54,3.54,5.14,8.77,5.14,15.14v27.54h-13.02v-5.14c-3.28,3.63-7.79,6.02-14.34,6.02-8.94,0-16.29-5.14-16.29-14.52ZM819.6,184.42v-2.39c-2.3-1.06-5.31-1.77-8.59-1.77-5.75,0-9.3,2.3-9.3,6.55v.18c0,3.63,3.01,5.76,7.35,5.76,6.29,0,10.54-3.45,10.54-8.32Z"/>
          <path class="cls-1" d="M839.17,153.69h13.46v6.73c3.1-3.98,7.08-7.62,13.9-7.62,10.18,0,16.12,6.73,16.12,17.62v30.73h-13.46v-26.48c0-6.38-3.01-9.65-8.15-9.65s-8.41,3.28-8.41,9.65v26.48h-13.46v-47.46Z"/>
          <path class="cls-1" d="M885.84,194.87l5.76-8.85c5.14,3.72,10.54,5.67,14.96,5.67,3.9,0,5.67-1.42,5.67-3.54v-.18c0-2.92-4.6-3.9-9.83-5.49-6.64-1.95-14.17-5.05-14.17-14.26v-.18c0-9.65,7.79-15.05,17.35-15.05,6.02,0,12.57,2.04,17.71,5.49l-5.14,9.3c-4.69-2.74-9.39-4.43-12.84-4.43s-4.96,1.42-4.96,3.28v.18c0,2.66,4.52,3.9,9.65,5.67,6.64,2.21,14.34,5.4,14.34,14.08v.18c0,10.54-7.88,15.32-18.15,15.32-6.64,0-14.08-2.21-20.37-7.17Z"/>
        </g>
        <g>
          <path class="cls-1" d="M362.93,277.04l4.34-5.14c6.46,5.84,12.66,8.77,21.25,8.77s13.81-4.43,13.81-10.54v-.18c0-5.76-3.1-9.03-16.12-11.78-14.26-3.1-20.81-7.7-20.81-17.89v-.18c0-9.74,8.59-16.91,20.37-16.91,9.03,0,15.5,2.57,21.78,7.62l-4.07,5.4c-5.75-4.69-11.51-6.73-17.89-6.73-8.06,0-13.19,4.43-13.19,10.01v.18c0,5.84,3.19,9.12,16.82,12.04,13.81,3.01,20.19,8.06,20.19,17.53v.18c0,10.62-8.85,17.53-21.16,17.53-9.83,0-17.89-3.28-25.32-9.92Z"/>
          <path class="cls-1" d="M414.91,263.41v-.18c0-12.93,10.09-23.91,23.91-23.91s23.82,10.8,23.82,23.73v.18c0,12.93-10.18,23.91-24,23.91s-23.73-10.8-23.73-23.73ZM455.64,263.41v-.18c0-9.83-7.35-17.89-17-17.89s-16.74,8.06-16.74,17.71v.18c0,9.83,7.26,17.8,16.91,17.8s16.82-7.97,16.82-17.62Z"/>
          <path class="cls-1" d="M469.46,268.72v-28.42h6.82v26.74c0,8.5,4.6,13.81,12.66,13.81s13.72-5.75,13.72-14.34v-26.21h6.73v45.78h-6.73v-7.97c-3.1,4.96-7.79,8.94-15.67,8.94-11.07,0-17.53-7.44-17.53-18.33Z"/>
          <path class="cls-1" d="M522.32,273.95v-27.63h-6.38v-6.02h6.38v-13.81h6.82v13.81h14.52v6.02h-14.52v26.74c0,5.58,3.1,7.62,7.7,7.62,2.3,0,4.25-.44,6.64-1.59v5.84c-2.39,1.24-4.96,1.95-8.23,1.95-7.35,0-12.93-3.63-12.93-12.93Z"/>
          <path class="cls-1" d="M550.93,221.44h6.82v26.83c3.01-4.96,7.79-8.94,15.67-8.94,11.07,0,17.53,7.44,17.53,18.33v28.42h-6.82v-26.74c0-8.5-4.6-13.81-12.66-13.81s-13.72,5.76-13.72,14.34v26.21h-6.82v-64.64Z"/>
          <path class="cls-1" d="M646.56,223.65h6.55l28.25,62.43h-7.53l-7.26-16.38h-33.74l-7.35,16.38h-7.17l28.25-62.43ZM663.83,263.41l-14.08-31.61-14.17,31.61h28.25Z"/>
          <path class="cls-1" d="M688.45,246.32h-6.29v-5.93h6.29v-3.98c0-5.22,1.42-9.21,3.99-11.78,2.3-2.3,5.67-3.54,9.83-3.54,3.19,0,5.31.35,7.53,1.15v5.93c-2.48-.71-4.34-1.15-6.64-1.15-5.31,0-7.97,3.19-7.97,9.74v3.72h14.52v5.84h-14.43v39.76h-6.82v-39.76Z"/>
          <path class="cls-1" d="M713.6,240.3h6.82v11.95c3.36-7.61,10-13.1,18.68-12.75v7.35h-.53c-10.01,0-18.15,7.17-18.15,20.99v18.24h-6.82v-45.78Z"/>
          <path class="cls-1" d="M744.86,222.77h7.79v7.53h-7.79v-7.53ZM745.3,240.3h6.82v45.78h-6.82v-45.78Z"/>
          <path class="cls-1" d="M760.36,263.41v-.18c0-12.93,10.09-23.91,23.46-23.91,8.68,0,14.08,3.63,18.33,8.15l-4.52,4.78c-3.63-3.81-7.7-6.91-13.9-6.91-9.3,0-16.38,7.88-16.38,17.71v.18c0,9.92,7.26,17.8,16.82,17.8,5.84,0,10.36-2.92,13.99-6.82l4.34,4.07c-4.6,5.14-10.09,8.85-18.68,8.85-13.37,0-23.46-10.89-23.46-23.73Z"/>
          <path class="cls-1" d="M805.52,272.79v-.18c0-9.83,7.97-14.96,19.57-14.96,5.84,0,9.92.8,13.99,1.95v-1.42c0-8.15-4.96-12.4-13.55-12.4-5.4,0-9.65,1.33-13.9,3.28l-2.04-5.58c5.05-2.3,9.92-3.9,16.65-3.9s11.51,1.77,14.79,5.05,4.78,7.61,4.78,13.46v27.98h-6.73v-6.82c-3.19,4.07-8.41,7.79-16.47,7.79-8.59,0-17.09-4.87-17.09-14.26ZM839.17,269.25v-4.25c-3.37-.97-7.79-1.95-13.37-1.95-8.5,0-13.37,3.72-13.37,9.21v.18c0,5.75,5.31,9.12,11.51,9.12,8.41,0,15.23-5.05,15.23-12.31Z"/>
        </g>
      </g>
    </g>
  </g>
</svg>